<svg width="31.000000" height="23.695679" viewBox="0 0 31 23.6957" fill="none" xmlns="http://www.w3.org/2000/svg" xmlns:xlink="http://www.w3.org/1999/xlink">
	<desc>
			Created with Pixso.
	</desc>
	<defs/>
	<path id="Vector" d="M1.5 1.5L29.5 1.5L1.5 1.5ZM1.5 11.8478L29.5 11.8478L1.5 11.8478ZM1.5 22.1956L29.5 22.1956M1.52002 2.98001L1.5 3C0.659973 3 0 2.34 0 1.5C0 0.660004 0.659973 0 1.5 0L1.52002 0.019989L1.52002 2.98001ZM29.48 0.019989L29.5 0C30.34 0 31 0.660004 31 1.5C31 2.34 30.34 3 29.5 3L29.48 2.98001L29.48 0.019989ZM1.52002 13.3278L1.5 13.3478C0.659973 13.3478 0 12.6878 0 11.8478C0 11.0078 0.659973 10.3478 1.5 10.3478L1.52002 10.3678L1.52002 13.3278ZM29.48 10.3678L29.5 10.3478C30.34 10.3478 31 11.0078 31 11.8478C31 12.6878 30.34 13.3478 29.5 13.3478L29.48 13.3278L29.48 10.3678ZM1.52002 23.6757L1.5 23.6957C0.659973 23.6957 0 23.0356 0 22.1956C0 21.3557 0.659973 20.6956 1.5 20.6956L1.52002 20.7156L1.52002 23.6757ZM29.48 20.7156L29.5 20.6956C30.34 20.6956 31 21.3557 31 22.1956C31 23.0356 30.34 23.6957 29.5 23.6957L29.48 23.6757L29.48 20.7156Z" fill="#283618" fill-opacity="1.000000" fill-rule="nonzero"/>
	<path id="Vector" d="M1.5 1.5L29.5 1.5M1.5 11.8478L29.5 11.8478M1.5 22.1956L29.5 22.1956" stroke="#283618" stroke-opacity="1.000000" stroke-width="3.000000" stroke-linejoin="round"/>
</svg>
