<svg width="32.000000" height="32.843018" viewBox="0 0 32 32.843" fill="none" xmlns="http://www.w3.org/2000/svg" xmlns:xlink="http://www.w3.org/1999/xlink">
	<desc>
			Created with Pixso.
	</desc>
	<defs/>
	<path id="Vector" d="M27.9476 21.8954L11.1887 21.8954C10.9106 21.8958 10.6407 21.8017 10.4232 21.6284C10.2057 21.4551 10.0535 21.2131 9.99182 20.9419L7.16992 8.64786C7.12866 8.46826 7.12842 8.28168 7.16919 8.10199C7.21002 7.9223 7.29083 7.75412 7.40558 7.60995C7.52039 7.46582 7.6662 7.3494 7.83221 7.26938C7.99823 7.18939 8.18011 7.14786 8.36438 7.14786L30.772 7.14786C30.9564 7.14749 31.1386 7.18875 31.3049 7.26859C31.4713 7.34845 31.6174 7.46481 31.7324 7.60901C31.8475 7.7532 31.9285 7.92151 31.9694 8.10138C32.0104 8.28128 32.0102 8.46808 31.9689 8.64786L29.1421 20.9419C29.0804 21.2126 28.9287 21.4544 28.7117 21.6277C28.4947 21.8008 28.2253 21.8953 27.9476 21.8954ZM12.1642 19.4444L26.9722 19.4444L29.2328 9.60129L9.90277 9.60129L12.1642 19.4444Z" fill="#283618" fill-opacity="1.000000" fill-rule="nonzero"/>
	<path id="Vector" d="M13.5865 32.843C12.6577 32.843 11.7498 32.5676 10.9775 32.0516C10.2053 31.5356 9.60333 30.8022 9.24792 29.9441C8.89246 29.086 8.7995 28.1417 8.98065 27.2308C9.16187 26.3199 9.60913 25.4831 10.2659 24.8264C10.9227 24.1696 11.7594 23.7223 12.6703 23.5411C13.5813 23.3599 14.5255 23.4529 15.3836 23.8084C16.2417 24.1638 16.9751 24.7657 17.4911 25.538C18.0071 26.3102 18.2826 27.2181 18.2826 28.147C18.2812 29.392 17.7861 30.5858 16.9057 31.4661C16.0253 32.3466 14.8316 32.8417 13.5865 32.843ZM13.5865 25.9027C13.1425 25.9027 12.7083 26.0344 12.3391 26.2811C11.9699 26.5278 11.6821 26.8785 11.5122 27.2888C11.3423 27.6991 11.2979 28.1506 11.3846 28.5861C11.4713 29.0216 11.6852 29.4216 11.9993 29.7356C12.3134 30.0496 12.7134 30.2633 13.149 30.3499C13.5846 30.4363 14.036 30.3918 14.4462 30.2217C14.8564 30.0517 15.207 29.7638 15.4536 29.3945C15.7002 29.0251 15.8318 28.591 15.8316 28.147C15.8309 27.5518 15.5942 26.9812 15.1733 26.5605C14.7523 26.1397 14.1816 25.9031 13.5865 25.9027Z" fill="#283618" fill-opacity="1.000000" fill-rule="nonzero"/>
	<path id="Vector" d="M25.5489 32.843C24.6201 32.843 23.7122 32.5676 22.9399 32.0516C22.1677 31.5356 21.5657 30.8022 21.2103 29.9441C20.8549 29.086 20.7619 28.1417 20.9431 27.2308C21.1243 26.3199 21.5715 25.4831 22.2283 24.8264C22.8851 24.1696 23.7218 23.7223 24.6328 23.5411C25.5437 23.3599 26.4879 23.4529 27.346 23.8084C28.2041 24.1638 28.9375 24.7657 29.4536 25.538C29.9695 26.3102 30.245 27.2181 30.245 28.147C30.2437 29.392 29.7485 30.5858 28.8681 31.4661C27.9877 32.3466 26.794 32.8417 25.5489 32.843ZM25.5489 25.9027C25.1049 25.9027 24.6707 26.0344 24.3015 26.2811C23.9323 26.5278 23.6445 26.8785 23.4746 27.2888C23.3047 27.6991 23.2603 28.1506 23.347 28.5861C23.4337 29.0216 23.6476 29.4216 23.9617 29.7356C24.2758 30.0496 24.6758 30.2633 25.1114 30.3499C25.547 30.4363 25.9984 30.3918 26.4086 30.2217C26.8188 30.0517 27.1694 29.7638 27.416 29.3945C27.6626 29.0251 27.7941 28.591 27.794 28.147C27.7933 27.5518 27.5566 26.9812 27.1357 26.5605C26.7147 26.1397 26.144 25.9031 25.5489 25.9027Z" fill="#283618" fill-opacity="1.000000" fill-rule="nonzero"/>
	<path id="Vector" d="M8.36432 9.59882C8.10712 9.59879 7.85638 9.51782 7.64777 9.36737C7.43909 9.21695 7.28308 9.00464 7.20178 8.76059L5.10132 2.45096L1.22546 2.45096C0.900452 2.45096 0.588745 2.32187 0.358948 2.09204C0.129089 1.86221 0 1.55051 0 1.22549C0 0.900452 0.129089 0.588745 0.358948 0.358948C0.588745 0.12912 0.900452 0 1.22546 0L5.98853 0C6.24579 3.05176e-05 6.49646 0.0809937 6.70514 0.231445C6.91382 0.381897 7.06982 0.594177 7.15112 0.838226L9.53101 7.98608C9.59235 8.17029 9.60907 8.36642 9.57977 8.55835C9.55048 8.75024 9.47595 8.93246 9.36243 9.08997C9.2489 9.24744 9.09955 9.3757 8.92676 9.46417C8.75397 9.55264 8.56256 9.59882 8.36841 9.59882L8.36432 9.59882Z" fill="#283618" fill-opacity="1.000000" fill-rule="nonzero"/>
</svg>
