<svg width="28.000000" height="32.666656" viewBox="0 0 28 32.6667" fill="none" xmlns="http://www.w3.org/2000/svg" xmlns:xlink="http://www.w3.org/1999/xlink">
	<desc>
			Created with Pixso.
	</desc>
	<defs/>
	<path id="Vector" d="M14 16.3333C15.6152 16.3333 17.1942 15.8544 18.5371 14.957C19.8801 14.0596 20.9269 12.7842 21.545 11.2919C22.1631 9.79965 22.3248 8.15762 22.0097 6.57343C21.6946 4.98926 20.9168 3.53409 19.7747 2.39197C18.6326 1.24985 17.1774 0.472046 15.5932 0.156921C14.009 -0.158203 12.367 0.00354004 10.8748 0.621643C9.38245 1.23978 8.10699 2.2865 7.20966 3.62952C6.31226 4.9725 5.83331 6.55145 5.83331 8.16666C5.83331 10.3326 6.69373 12.4098 8.22528 13.9414C9.75684 15.4729 11.834 16.3333 14 16.3333ZM14 2.33334C15.1537 2.33334 16.2815 2.67545 17.2408 3.31644C18.2001 3.9574 18.9478 4.86844 19.3893 5.93436C19.8308 7.00024 19.9463 8.17316 19.7213 9.30469C19.4962 10.4362 18.9406 11.4756 18.1248 12.2915C17.309 13.1073 16.2696 13.6628 15.138 13.8879C14.0065 14.113 12.8336 13.9975 11.7676 13.556C10.7018 13.1145 9.79071 12.3668 9.14972 11.4075C8.50879 10.4482 8.16663 9.3204 8.16663 8.16666C8.16663 6.61957 8.78125 5.13583 9.87518 4.04187C10.9692 2.94791 12.4529 2.33334 14 2.33334Z" fill="#283618" fill-opacity="1.000000" fill-rule="nonzero"/>
	<path id="Vector" d="M15.1667 18.6667L12.8333 18.6667C9.42975 18.6667 6.16553 20.0187 3.75879 22.4254C1.35205 24.8322 0 28.0964 0 31.5C0 31.8094 0.122925 32.1062 0.341736 32.3249C0.560486 32.5437 0.857239 32.6667 1.16669 32.6667L26.8333 32.6667C27.1428 32.6667 27.4395 32.5437 27.6583 32.3249C27.8771 32.1062 28 31.8094 28 31.5C28 28.0964 26.6479 24.8322 24.2412 22.4254C21.8345 20.0187 18.5703 18.6667 15.1667 18.6667ZM2.40332 30.3333C2.69019 27.7674 3.91241 25.3971 5.83649 23.6754C7.7605 21.9537 10.2514 21.0012 12.8333 21L15.1667 21C17.7486 21.0012 20.2395 21.9537 22.1635 23.6754C24.0876 25.3971 25.3098 27.7674 25.5967 30.3333L2.40332 30.3333Z" fill="#283618" fill-opacity="1.000000" fill-rule="nonzero"/>
</svg>
