<svg width="186.265869" height="24.890625" viewBox="0 0 186.266 24.8906" fill="none" xmlns="http://www.w3.org/2000/svg" xmlns:xlink="http://www.w3.org/1999/xlink">
	<desc>
			Created with Pixso.
	</desc>
	<defs/>
	<path id="TatarStar" d="M107.936 16.6406L103.647 16.6406Q103.717 18.013 104.224 19.1983Q104.626 20.1385 105.303 20.9609Q106.842 22.8125 109.483 23.8516Q112.124 24.8906 115.577 24.8906Q118.975 24.8906 121.514 23.9531Q124.061 23.0078 125.467 21.2812Q126.071 20.5368 126.416 19.6873Q126.874 18.5577 126.874 17.2422Q126.874 15.2578 126.077 14Q125.28 12.7344 123.405 11.9844Q121.53 11.2266 118.303 10.7812L113.053 10.0469Q110.46 9.69531 109.421 9.00781Q108.933 8.6855 108.675 8.23267Q108.382 7.71963 108.382 7.03906Q108.382 6.49585 108.569 6.02757Q108.955 5.06131 110.139 4.41406Q111.897 3.45312 114.842 3.45312Q116.921 3.45312 118.46 3.98438Q119.999 4.50781 120.905 5.4375Q121.383 5.92356 121.656 6.50571Q121.905 7.03705 121.983 7.64844L126.272 7.64844Q126.2 6.40429 125.733 5.33318Q125.334 4.42013 124.647 3.63281Q123.163 1.91406 120.663 0.960938Q118.171 0 114.944 0Q111.678 0 109.241 0.882812Q106.811 1.75781 105.483 3.375Q104.969 4.0015 104.653 4.71594Q104.155 5.84568 104.155 7.19531Q104.155 9.19502 105.082 10.5693Q105.506 11.1977 106.124 11.6953Q108.092 13.2734 112.444 13.8516L117.632 14.5234Q120.475 14.875 121.561 15.5859Q122.015 15.8778 122.281 16.291Q122.655 16.8729 122.655 17.6953Q122.655 18.219 122.481 18.6766Q122.081 19.7276 120.764 20.4297Q118.874 21.4375 115.647 21.4375Q113.467 21.4375 111.803 20.8438Q110.139 20.25 109.132 19.1641Q108.569 18.5574 108.262 17.8411Q108.019 17.2751 107.936 16.6406ZM24.0625 0.445312L0 0.445312L0 4.15625L9.91406 4.15625L9.91406 24.4453L14.1406 24.4453L14.1406 4.15625L24.0625 4.15625L24.0625 0.445312ZM44.2806 7.64844L44.2806 9.53125L48.1556 9.53125L48.1556 18.0156Q48.1556 20.0312 48.9056 21.5859Q49.1407 22.0658 49.4592 22.4817Q50.1675 23.4067 51.2884 24.0156Q52.9213 24.8906 55.5775 24.8906Q57.0095 24.8906 58.3728 24.5846Q58.5342 24.5483 58.6947 24.5078Q60.2181 24.125 61.0541 23.7109L61.0541 20.2891Q60.4318 20.6467 59.7696 20.8999Q59.3759 21.0505 58.9681 21.1641Q57.8822 21.4688 56.4759 21.4688Q54.265 21.4688 53.2884 20.5625Q52.3197 19.6484 52.3197 17.375L52.3197 9.53125L60.7338 9.53125L60.7338 6.33594L52.3197 6.33594L52.3197 1.59375L49.8822 1.59375L48.1556 6.65625L44.2806 7.64844ZM128.281 7.64844L128.281 9.53125L132.156 9.53125L132.156 18.0156Q132.156 20.0312 132.906 21.5859Q133.141 22.0658 133.459 22.4817Q134.168 23.4067 135.288 24.0156Q136.921 24.8906 139.578 24.8906Q141.01 24.8906 142.373 24.5846Q142.534 24.5483 142.695 24.5078Q144.218 24.125 145.054 23.7109L145.054 20.2891Q144.432 20.6467 143.77 20.8999Q143.376 21.0505 142.968 21.1641Q141.882 21.4688 140.476 21.4688Q138.265 21.4688 137.288 20.5625Q136.32 19.6484 136.32 17.375L136.32 9.53125L144.734 9.53125L144.734 6.33594L136.32 6.33594L136.32 1.59375L133.882 1.59375L132.156 6.65625L128.281 7.64844ZM37.5725 19.96Q37.4438 20.1747 37.3076 20.3828Q36.1545 22.138 34.555 23.2524Q34.2038 23.4971 33.831 23.7109Q33.264 24.0352 32.6622 24.2704Q31.0748 24.8906 29.2451 24.8906Q26.8566 24.8906 24.9608 23.9242Q24.7483 23.8158 24.5419 23.6953Q23.6911 23.1952 22.9941 22.5331Q22.0144 21.6024 21.3388 20.3516Q20.1904 18.2031 20.1904 15.3906Q20.1904 12.5391 21.3388 10.4141Q21.9927 9.21232 22.9314 8.30541Q23.6526 7.60866 24.5419 7.08594Q24.7672 6.95351 24.9999 6.83566Q26.8812 5.88281 29.2451 5.88281Q31.0539 5.88281 32.626 6.49301Q33.247 6.73405 33.831 7.07031Q34.1707 7.2639 34.493 7.48316Q36.1346 8.6 37.3232 10.3828Q37.4546 10.5792 37.5788 10.7821L38.0419 6.33594L42.331 6.33594L41.3701 15.3906L42.331 24.4453L38.0419 24.4453L37.5725 19.96ZM79.9406 19.96Q79.8118 20.1747 79.6756 20.3828Q78.5225 22.138 76.923 23.2524Q76.5718 23.4971 76.199 23.7109Q75.632 24.0352 75.0302 24.2704Q73.4428 24.8906 71.6131 24.8906Q69.2246 24.8906 67.3288 23.9242Q67.1163 23.8158 66.9099 23.6953Q66.0591 23.1952 65.3621 22.5331Q64.3824 21.6024 63.7068 20.3516Q62.5584 18.2031 62.5584 15.3906Q62.5584 12.5391 63.7068 10.4141Q64.3607 9.21232 65.2994 8.30541Q66.0206 7.60866 66.9099 7.08594Q67.1352 6.95351 67.3679 6.83566Q69.2492 5.88281 71.6131 5.88281Q73.422 5.88281 74.994 6.49301Q75.615 6.73405 76.199 7.07031Q76.5387 7.2639 76.861 7.48316Q78.5026 8.6 79.6912 10.3828Q79.8226 10.5791 79.9468 10.7821L80.4099 6.33594L84.699 6.33594L83.7381 15.3906L84.699 24.4453L80.4099 24.4453L79.9406 19.96ZM102.266 9.85156L102.266 6.20312Q101.758 6.04688 101.086 5.96875Q100.414 5.88281 99.7736 5.88281Q97.9455 5.88281 96.5705 6.59375Q95.9841 6.89363 95.4758 7.29299Q94.7923 7.83 94.2502 8.54688Q93.3471 9.73357 92.8219 11.3195L92.0002 6.33594L87.8361 6.33594L88.9221 12.125L88.9221 24.4453L93.0861 24.4453L93.0861 16.25Q93.0861 14.0469 93.8674 12.5312Q94.4495 11.3961 95.3613 10.6817Q95.6732 10.4373 96.0236 10.2422Q96.1727 10.1588 96.3261 10.0844Q97.596 9.46875 99.1643 9.46875Q99.8986 9.46875 100.727 9.57031Q101.563 9.66406 102.266 9.85156ZM163.941 19.96Q163.812 20.1747 163.676 20.3828Q162.523 22.138 160.923 23.2524Q160.572 23.4971 160.199 23.7109Q159.632 24.0352 159.03 24.2704Q157.443 24.8906 155.613 24.8906Q153.225 24.8906 151.329 23.9242Q151.116 23.8158 150.91 23.6953Q150.059 23.1952 149.362 22.5331Q148.382 21.6024 147.707 20.3516Q146.558 18.2031 146.558 15.3906Q146.558 12.5391 147.707 10.4141Q148.361 9.21232 149.299 8.30541Q150.021 7.60866 150.91 7.08594Q151.135 6.95351 151.368 6.83566Q153.249 5.88281 155.613 5.88281Q157.422 5.88281 158.994 6.49301Q159.615 6.73405 160.199 7.07031Q160.539 7.2639 160.861 7.48316Q162.503 8.6 163.691 10.3828Q163.823 10.5793 163.947 10.7821L164.41 6.33594L168.699 6.33594L167.738 15.3906L168.699 24.4453L164.41 24.4453L163.941 19.96ZM186.266 9.85156L186.266 6.20312Q185.758 6.04688 185.086 5.96875Q184.414 5.88281 183.774 5.88281Q181.946 5.88281 180.571 6.59375Q179.984 6.89363 179.476 7.29299Q178.792 7.83 178.25 8.54688Q177.347 9.73357 176.822 11.3195L176 6.33594L171.836 6.33594L172.922 12.125L172.922 24.4453L177.086 24.4453L177.086 16.25Q177.086 14.0469 177.867 12.5312Q178.45 11.3961 179.361 10.6817Q179.673 10.4373 180.024 10.2422Q180.173 10.1588 180.326 10.0844Q181.596 9.46875 183.164 9.46875Q183.899 9.46875 184.727 9.57031Q185.563 9.66406 186.266 9.85156ZM25.1591 18.6094Q24.4091 17.2109 24.4091 15.3906Q24.4091 13.5625 25.1591 12.1719Q25.6357 11.2973 26.3318 10.6637Q26.7424 10.2899 27.2294 10Q27.4345 9.87671 27.6489 9.77269Q28.8068 9.21094 30.2373 9.21094Q31.3526 9.21094 32.3603 9.5402Q32.9126 9.72065 33.4326 10Q33.5276 10.0503 33.6211 10.1031Q34.982 10.8707 36.0419 12.1719Q37.1826 13.5625 37.8544 15.3906Q37.1826 17.2109 36.0419 18.6094Q34.982 19.9105 33.6211 20.6782Q33.5276 20.731 33.4326 20.7812Q32.9298 21.0487 32.3968 21.2246Q31.3728 21.5625 30.2373 21.5625Q28.7836 21.5625 27.6115 20.9881Q27.4166 20.8926 27.2294 20.7812Q26.7424 20.4914 26.3318 20.1176Q25.6357 19.484 25.1591 18.6094ZM67.5271 18.6094Q66.7771 17.2109 66.7771 15.3906Q66.7771 13.5625 67.5271 12.1719Q68.0038 11.2973 68.6998 10.6637Q69.1104 10.2899 69.5974 10Q69.8025 9.87671 70.0169 9.77269Q71.1748 9.21094 72.6053 9.21094Q73.7206 9.21094 74.7283 9.5402Q75.2806 9.72065 75.8006 10Q75.8956 10.0503 75.9891 10.1031Q77.35 10.8707 78.4099 12.1719Q79.5506 13.5625 80.2224 15.3906Q79.5506 17.2109 78.4099 18.6094Q77.35 19.9105 75.9891 20.6782Q75.8956 20.731 75.8006 20.7812Q75.2978 21.0487 74.7648 21.2246Q73.7408 21.5625 72.6053 21.5625Q71.1516 21.5625 69.9795 20.9881Q69.7846 20.8926 69.5974 20.7812Q69.1104 20.4914 68.6998 20.1176Q68.0038 19.484 67.5271 18.6094ZM151.527 18.6094Q150.777 17.2109 150.777 15.3906Q150.777 13.5625 151.527 12.1719Q152.004 11.2973 152.7 10.6637Q153.11 10.2899 153.597 10Q153.803 9.87671 154.017 9.77269Q155.175 9.21094 156.605 9.21094Q157.721 9.21094 158.728 9.5402Q159.281 9.72065 159.801 10Q159.896 10.0503 159.989 10.1031Q161.35 10.8707 162.41 12.1719Q163.551 13.5625 164.222 15.3906Q163.551 17.2109 162.41 18.6094Q161.35 19.9105 159.989 20.6782Q159.896 20.731 159.801 20.7812Q159.298 21.0487 158.765 21.2246Q157.741 21.5625 156.605 21.5625Q155.152 21.5625 153.979 20.9881Q153.785 20.8926 153.597 20.7812Q153.11 20.4914 152.7 20.1176Q152.004 19.484 151.527 18.6094Z" fill="#283618" fill-opacity="1.000000" fill-rule="evenodd"/>
</svg>
