<svg width="48.000000" height="32.062500" viewBox="0 0 48 32.0625" fill="none" xmlns="http://www.w3.org/2000/svg" xmlns:xlink="http://www.w3.org/1999/xlink">
	<desc>
			Created with Pixso.
	</desc>
	<defs/>
	<path id="Vector" d="M0 4.41211C0 2.60889 1.23389 1.89844 2.75146 1.80322L9.81787 1.8501C10.2444 1.8501 10.6238 2.13525 10.7666 2.56201C12.3799 7.77979 14.3711 11.0049 16.7432 14.6562C16.8857 14.9419 17.1226 15.083 17.3594 15.083C17.5491 15.083 17.7388 14.9873 17.8813 14.7505L18.0242 14.2285L18.071 6.02393C18.071 4.83838 17.502 4.64893 16.1741 4.45898C15.6519 4.36328 15.3196 3.88965 15.3196 3.41504C15.3196 3.31934 15.3196 3.2251 15.3667 3.12939C16.0312 1.08984 18.1182 0.046875 21.0579 0.046875L23.7139 0C25.8962 0 27.8875 0.94873 27.8875 3.74707L27.8875 14.5137C28.0774 14.6562 28.2671 14.7505 28.5037 14.7505C28.8831 14.7505 29.3582 14.5137 29.7375 13.896C32.2039 10.4341 35.0024 6.30762 35.3818 4.125C35.3818 4.0293 35.429 3.98242 35.4775 3.88818C35.9995 2.84424 37.3276 2.13379 37.8967 1.94434C37.9924 1.89697 38.1335 1.84863 38.3232 1.84863L45.6748 1.84863L46.1499 1.89551C46.8618 1.89551 47.3838 2.37061 47.6206 2.79688C48.0471 3.46191 47.9529 4.17236 48 4.45752L48 4.79004C47.2881 9.10596 42.3557 13.9429 40.2688 17.0742C39.9836 17.4536 39.8425 17.7856 39.8425 18.1182C39.8425 18.4033 39.9851 18.6875 40.2219 18.9727L47.147 27.6992C47.5264 28.2217 47.7163 28.8374 47.7163 29.3599C47.7163 30.9243 46.2456 31.8262 44.8235 31.9688L44.0176 32.0156L36.8086 32.0156C36.6658 32.0156 36.5718 32.0625 36.4292 32.0625C35.6233 32.0625 34.9585 31.6362 34.4849 31.1611C32.9673 29.311 31.4966 27.4141 30.0259 25.564C29.7407 25.1846 29.6465 25.1377 29.3613 24.9478C29.0288 26.3228 28.7451 27.7466 28.4126 29.1685L28.27 29.9746C28.0332 30.8286 27.4155 31.729 26.2773 31.9673L25.6125 32.0142L20.9639 32.0142C12.7593 32.0142 5.40747 20.3462 0.238281 5.78711C0.0957031 5.40771 0.00146484 4.88525 0.00146484 4.41211L0 4.41211ZM28.5037 16.6963C27.2698 16.6963 25.8948 15.9844 25.8948 14.6562L25.8948 3.74707C25.8948 2.46631 25.3257 1.99268 23.761 1.99268L21.0579 2.08838C19.5403 2.08838 18.6858 2.3252 17.9756 2.80029C19.0667 3.32227 20.0623 4.03418 20.0623 6.02539L20.0623 14.3726C19.9197 16.0327 18.5447 17.124 17.2168 17.124C16.3152 17.124 15.5093 16.6021 15.0342 15.749C12.9004 12.5239 11.0974 9.48877 9.53271 5.125L9.1062 3.8916L2.79858 3.84424C1.94409 3.84424 2.03979 3.8916 2.03979 4.31934C2.03979 4.60449 2.08691 4.98389 2.1355 5.2207L3.1311 7.87695C8.30029 21.2524 14.7991 30.0259 20.9639 30.0259L25.7065 30.0259C26.3713 30.0259 26.3228 29.2202 26.4656 28.7451L27.3669 24.5713C27.5566 24.145 27.6995 23.7656 28.0317 23.4331C28.4111 23.0537 28.8376 22.9111 29.2656 22.9111C30.1672 22.9111 31.02 23.623 31.5891 24.2861L35.6201 29.4082C35.9526 29.9302 36.2363 30.0244 36.426 30.0244L44.2512 30.0244C45.0103 30.0244 45.6748 29.7876 45.6748 29.3125C45.6748 29.1699 45.6279 28.9805 45.5322 28.8374L38.6555 20.2534C38.0864 19.542 37.8496 18.8301 37.8496 18.1196C37.8496 17.3608 38.135 16.6021 38.6086 15.9375C40.6013 12.9487 44.8689 8.68115 45.8645 5.1709L46.0073 4.55469C45.9602 4.31787 45.9602 4.12793 45.9116 3.88965L38.4658 3.88965C37.9907 4.07959 37.6113 4.36475 37.3276 4.74414L37.0422 5.646C35.9512 8.68115 32.9626 12.855 30.8289 15.7476C30.1169 16.4121 29.3096 16.6963 28.5037 16.6963Z" fill="#FEFAE0" fill-opacity="1.000000" fill-rule="nonzero"/>
</svg>
