<svg width="48.000000" height="34.539551" viewBox="0 0 48 34.5396" fill="none" xmlns="http://www.w3.org/2000/svg" xmlns:xlink="http://www.w3.org/1999/xlink">
	<desc>
			Created with Pixso.
	</desc>
	<defs/>
	<path id="Vector" d="M44.0771 2.17725C42.7778 1.24219 39.1577 0 23.9888 0C7.73364 0 5.32104 1.42676 4.54639 1.89404C0.427002 4.36963 0.0358887 15.3247 0 17.5454C0.0495605 20.4795 0.522949 30.2417 4.54321 32.6558C5.31494 33.1221 7.71411 34.5396 23.9873 34.5396C39.1665 34.5396 42.7825 33.3032 44.0754 32.3711C47.5864 29.8447 47.9895 21.1475 48 17.5063C47.991 14.5786 47.6838 4.77539 44.0754 2.17725L44.0771 2.17725ZM42.3269 29.9404C41.804 30.3169 38.8054 31.5425 23.9873 31.5425C9.66211 31.5425 6.65625 30.4307 6.08813 30.0874C4.64233 29.2197 3.11523 24.6152 2.99683 17.5366C3.11523 10.4741 4.66162 5.31934 6.09277 4.46094C6.66211 4.11768 9.67847 2.99707 23.9888 2.99707C38.7949 2.99707 41.8008 4.23145 42.3284 4.60938C43.6125 5.53369 44.9851 10.4009 45.0061 17.5156C44.9851 24.7427 43.6035 29.0205 42.3284 29.939L42.3269 29.9404ZM33.7603 16.0903L20.2771 7.81592C19.814 7.53564 19.2356 7.52979 18.7666 7.79492C18.2947 8.06152 18.0039 8.56055 18.0039 9.1001L18.0039 25.6504C18.0039 26.1899 18.2947 26.6904 18.7666 26.9556C18.9944 27.0845 19.2493 27.1489 19.5024 27.1489C19.769 27.1489 20.0388 27.0771 20.2756 26.9346L33.7588 18.6572C34.2083 18.3862 34.4824 17.8989 34.4824 17.3745C34.4824 16.8501 34.2083 16.3618 33.7588 16.0903L33.7603 16.0903ZM21.0024 22.9966L21.0024 11.7539L30.0874 17.3745L21.0024 22.9966Z" fill="#FEFAE0" fill-opacity="1.000000" fill-rule="nonzero"/>
</svg>
